<?xml version="1.0" standalone="no"?>
<svg xmlns="http://www.w3.org/2000/svg" version="1.1" xmlns:xlink="http://www.w3.org/1999/xlink" width="512" height="512" x="0" y="0" viewBox="0 0 64 64" style="enable-background:new 0 0 512 512" xml:space="preserve" class=""><g transform="matrix(1.0899999999999994,0,0,1.0899999999999994,-2.886147794723499,-2.880125226974471)"><path d="M15.152 54.411c2.452.539 4.97-.916 5.797-3.267l2.779-8.325-4.213-2.373a4.896 4.896 0 0 0-1.556-.548c-1.51-.264-3.162.14-4.108 1.397a.49.49 0 0 1-.239.164l-2.096 6.342c-.983 2.796.723 5.971 3.637 6.611zM19.725 34.135c2.258-.957 4.783-1.236 7.207-.912l6.304-18.872a7.46 7.46 0 0 1 .87-1.801c.547-.797 1.125-1.312 1.879-1.672.404-.198.966-.242 1.562-.196-2.801-1.18-5.89-1.636-8.825-.705a10.819 10.819 0 0 0-6.073 4.862c-.347.6-.636 1.233-.865 1.888l-7.179 21.725c.27-.359.544-.705.826-1.036 1.189-1.398 2.517-2.527 4.296-3.281z" fill="#4f46e5" opacity="1" data-original="#000000" class=""/><path d="M52.261 46.797c-.047.051-.089.107-.145.144-.712.474-1.794-.46-2.428-.827-4.801-2.775-9.588-5.573-14.419-8.294-2.617-1.474-5.065-3.021-8.06-3.566-4.358-.674-8.636.81-10.931 3.812l-.69.918a5.652 5.652 0 0 1 1.473-.189c.27 0 .539.021.806.057a5.93 5.93 0 0 1 2.264.737l25.027 14.099c2.315 1.281 5.257 1.047 6.833-1.24l.148-.229a5.097 5.097 0 0 0 .48-4.348l-.356-1.074zM36.302 12.03c-1.625.787-1.939 2.477-2.457 4.029l-1.079 3.23 6.47 19.566 12.228 7.075c.043-.226.078-.686-.025-1.618a.545.545 0 0 1-.012-.081c-.7-2.126-9.079-28.238-9.898-29.947-.396-.826-.968-1.591-1.747-2.073a3.693 3.693 0 0 0-3.48-.18z" fill="#4f46e5" opacity="1" data-original="#000000" class=""/></g></svg>