<?xml version="1.0" standalone="no"?>
<svg xmlns="http://www.w3.org/2000/svg" version="1.1" xmlns:xlink="http://www.w3.org/1999/xlink" width="512" height="512" x="0" y="0" viewBox="0 0 64 64" style="enable-background:new 0 0 512 512" xml:space="preserve" class=""><g><path fill="#d4655a" d="M31 6h10v5H31zM9 55c1.654 0 3 1.346 3 3s-1.346 3-3 3M60 39c1.654 0 3 1.346 3 3s-1.346 3-3 3" opacity="1" data-original="#f0bc5e" class=""/><path d="M43 53h-6v-5.446L45.887 42 37 36.446V30h6v-8h-6v-7h8V1H27v14h8v7h-6v3h-9v2h9v3h6v6.446L26.113 42 35 47.554V53h-6c-1.654 0-3 1.346-3 3v4c0 1.654 1.346 3 3 3h14c1.654 0 3-1.346 3-3v-4c0-1.654-1.346-3-3-3zM29 3h14v10H29zm2 21h10v4H31zm5 14.179L42.113 42 36 45.821 29.887 42zM44 60c0 .551-.449 1-1 1H29c-.551 0-1-.449-1-1v-4c0-.551.449-1 1-1h14c.551 0 1 .449 1 1zM18.293 54.707 20.586 57h-8.77c.112.314.184.648.184 1s-.072.686-.184 1h8.77l-2.293 2.293 1.414 1.414L24.414 58l-4.707-4.707zM50.414 43h6.77c-.112-.314-.184-.648-.184-1s.072-.686.184-1h-6.77l2.293-2.293-1.414-1.414L46.586 42l4.707 4.707 1.414-1.414zM17.721 26 9 19.771.279 26 9 32.229zM9 22.229 14.279 26 9 29.771 3.721 26z" fill="#000000" opacity="1" data-original="#000000" class=""/><path d="M31 5h10v2H31zM31 9h6v2h-6zM39 9h2v2h-2zM8 55.184c.314-.112.648-.184 1-.184s.686.072 1 .184V34H8zM57 8c0-.352.072-.686.184-1H47v2h10.184A2.966 2.966 0 0 1 57 8zM60 11c-.352 0-.686-.072-1-.184v28.369c.314-.113.648-.185 1-.185s.686.072 1 .184V10.816A2.966 2.966 0 0 1 60 11zM52 57h2v2h-2zM48 57h2v2h-2zM56 57h2v2h-2zM23 9h2v2h-2zM19 9h2v2h-2zM15 9h2v2h-2z" fill="#000000" opacity="1" data-original="#000000" class=""/><path fill="#d4655a" d="M9 61c-1.654 0-3-1.346-3-3s1.346-3 3-3 3 1.346 3 3-1.346 3-3 3zM60 45c-1.654 0-3-1.346-3-3s1.346-3 3-3 3 1.346 3 3-1.346 3-3 3zM60 11c-1.654 0-3-1.346-3-3s1.346-3 3-3 3 1.346 3 3-1.346 3-3 3z" opacity="1" data-original="#f0bc5e" class=""/></g></svg>