<?xml version="1.0" standalone="no"?>
<svg xmlns="http://www.w3.org/2000/svg" version="1.1" xmlns:xlink="http://www.w3.org/1999/xlink" width="512" height="512" x="0" y="0" viewBox="0 0 512 512" style="enable-background:new 0 0 512 512" xml:space="preserve" class=""><g><path fill="#000000" d="M352.6 449.6c-12.3 0-24.3-3.6-35.8-10.8-11.3-7.1-21.1-18-29.3-32.5-7-12.4-11.9-27.9-14.7-46.2-7.5-.5-14.9-.9-22.1-1.2-9.7-.5-18.6-.7-26.4-.7-5.3 0-10.3.1-15 .2-2.3.1-4.6.2-7 .3-2.1 7.8-3.8 15.8-5.2 23.6-1.7 10-2.6 19.8-2.6 29.2 0 8-3.5 19.4-20.3 28.6-11.5 6.3-24.5 9.5-38.5 9.5-12.3 0-23.3-3-33-9.1C95.1 435.8 86 426 86 406.9s4.2-39.9 12.6-60.2c8-19.5 18.1-39 29.9-58.1 11.6-18.7 23.3-37.1 34.8-54.8 11.3-17.3 20.9-34.1 28.6-49.8 7.2-14.6 10.8-28.2 10.8-40.4 0-1.9-.1-3.3-.2-4.5-.7.7-1.6 1.7-2.6 2.9-3.6 4.5-6.3 11.7-8 21.4-.5 2.6-1.9 4.9-4.1 6.5-1.7 1.2-3.7 1.8-5.7 1.8-.6 0-1.2 0-1.8-.2l-5.5-1c-4.8-.9-8.2-5-8.2-9.8 0-21.1 5.2-39.3 15.3-54.2 10-14.7 23-25.9 38.7-33.3 15.4-7.3 31.4-11 47.6-11 19 0 37 5.4 53.5 16.2 17 11.1 28.8 28.6 35.1 52.1 2.5 8.8 4.3 18.8 5.6 29.7 1.2 10.6 2.1 23.7 2.8 38.9v.2c.7 27.1 1.3 50.3 1.8 68.9.5 18.5 1.4 34.2 2.7 46.5 1.3 12.1 3 22.4 5.2 30.6 2 7.1 4.6 12.9 7.7 17.1 2.4 3.3 4.7 3.8 6.8 3.8 3.4 0 6.2-.9 8.6-2.8 4-3.2 5.1-5.1 5.4-5.8 1.2-2.8 3.6-4.8 6.5-5.6.9-.2 1.8-.4 2.6-.4 2.1 0 4.1.6 5.8 1.9l3.5 2.5c2.6 1.9 4.2 4.9 4.2 8.1 0 17-3.4 32.1-10.2 44.9-6.8 12.9-16 23-27.2 30-11.4 7.1-23.5 10.6-36 10.6zM264 194.1c-3.1 10.7-6.9 21.5-11.4 32.5l-25.1 62.1c3.1-.5 6.3-.8 9.5-1.1 9.7-.9 20.1-1.3 31.1-1.3h.8c-.6-21.6-1.5-43.7-2.5-66-.4-9-1.2-17.7-2.4-26.2z" opacity="1" data-original="#960019" class=""/><path fill="#c7ff69" d="M135.8 439.6c-10.4 0-19.6-2.5-27.7-7.5-8-5-12.1-13.4-12.1-25.1 0-18.4 3.9-37.2 11.8-56.4 7.9-19.1 17.6-38 29.2-56.6s23.1-36.8 34.7-54.6 21.3-34.7 29.2-50.8 11.8-31 11.8-44.8c0-11.1-2.7-16.6-8-16.6-3.7 0-7.9 2.9-12.6 8.8s-8 14.5-10.1 25.9l-5.5-1c0-19.1 4.5-35.3 13.6-48.6 9.1-13.2 20.6-23.2 34.7-29.9s28.5-10.1 43.3-10.1c17.1 0 33.1 4.9 48 14.6s25.2 25.1 30.9 46.3c2.4 8.4 4.1 17.8 5.3 28.2s2.1 23.1 2.8 38.2c.7 27.2 1.3 50.1 1.8 68.9s1.4 34.5 2.8 47.3c1.3 12.8 3.2 23.5 5.5 32.2 2.4 8.4 5.5 15.2 9.3 20.4 3.9 5.2 8.8 7.8 14.8 7.8 5.7 0 10.6-1.7 14.8-5 4.2-3.4 7-6.5 8.3-9.6l3.5 2.5c0 15.4-3 28.9-9 40.2-6 11.4-13.9 20.1-23.6 26.2-9.7 6-20 9-30.7 9s-20.5-3.1-30.4-9.3-18.5-15.8-25.9-28.9-12.2-30-14.6-50.8c-10.4-.7-20.6-1.3-30.4-1.8-9.9-.5-18.9-.8-26.9-.8-5.4 0-10.5.1-15.4.2-4.9.2-9.6.4-14.3.8-3 10.4-5.5 20.9-7.3 31.4-1.8 10.6-2.8 20.9-2.8 30.9 0 7.7-5 14.3-15.1 19.9-10.1 5.7-21.3 8.5-33.7 8.5zm75.4-137.3c8.4-2.3 17.3-3.9 26.7-4.8 9.4-.8 19.4-1.3 30.2-1.3h11.1c-.7-24.8-1.6-50.3-2.8-76.5s-5.5-50.5-12.8-72.9c-2.7 24.1-9.4 49.5-20.1 76-10.8 26.5-21.5 53-32.3 79.5z" opacity="1" data-original="#ff364e" class=""/></g></svg>